<svg xmlns="http://www.w3.org/2000/svg" viewBox="0 0 100 100">
  <path fill-rule="evenodd" clip-rule="evenodd" d="M11.5289 13.0118C6.17985 11.1738 4.71498 9.86431 4.71498 6.91801C4.71498 4.0526 6.80154 2.20105 10.0288 2.20105C13.8179 2.20105 17.8884 4.60045 19.1831 9.33378H19.5814V2.70462C17.1032 0.984986 13.7381 0 10.3368 0C7.31962 0 4.77582 0.855965 2.98108 2.47643C1.22818 4.05741 0.30134 6.2575 0.30134 8.83503C0.30134 14.1595 3.68928 16.3539 9.54022 18.346C14.9311 20.1975 16.5737 21.6119 16.5737 24.3945C16.5737 27.7606 14.3322 29.6921 10.4243 29.6921C6.40514 29.6921 1.87839 27.0366 0.405906 21.8006H0L0.343167 28.968C2.13695 30.4104 5.63136 31.9374 10.1172 31.9374C13.2057 31.9374 15.9843 31.1209 17.9435 29.6382C20.0795 28.0216 21.2088 25.6693 21.2088 22.8338C21.2088 17.3542 17.6593 15.0829 11.5298 13.0118H11.5289ZM58.729 22.6393C56.0046 27.648 53.592 29.3349 50.0215 29.3349H47.9102C45.1763 29.3349 43.6962 28.8323 43.6962 26.1777V5.62492C43.6962 3.01562 44.9729 0.971506 47.8304 0.826118V0.444833H34.1361V0.825155C37.081 0.970544 38.3149 2.99347 38.3149 5.62395V26.2653C38.3149 28.9709 37.024 31.0102 34.1361 31.1104V31.4897H57.7442L59.1996 22.4236H58.8459L58.729 22.6383V22.6393ZM81.321 13.0118C75.972 11.1738 74.5071 9.86431 74.5071 6.91801C74.5071 4.0526 76.5937 2.20105 79.8209 2.20105C83.61 2.20105 87.6805 4.60045 88.9752 9.33378H89.3726V2.70462C86.8944 0.984986 83.5302 0 80.1289 0C77.1117 0 74.5679 0.855965 72.7732 2.47643C71.0203 4.05837 70.0935 6.2575 70.0935 8.83599C70.0935 14.1605 73.4814 16.3548 79.3323 18.3469C84.7222 20.1985 86.3658 21.6129 86.3658 24.3955C86.3658 27.7616 84.1243 29.6931 80.2164 29.6931C76.1973 29.6931 71.6705 27.0375 70.198 21.8016H69.7902L70.1334 28.969C71.9272 30.4113 75.4216 31.9384 79.9084 31.9384C82.9959 31.9384 85.7755 31.1219 87.7347 29.6391C89.8707 28.0225 91 25.6703 91 22.8347C91 17.3552 87.4505 15.0839 81.321 13.0128V13.0118ZM0.982921 47.0656C1.13026 46.8971 1.20441 46.5986 1.20441 46.1721V41.7834C1.20441 41.459 1.13026 41.2423 0.982921 41.1335C0.834627 41.0257 0.60078 40.9708 0.279477 40.9708V40.7985H1.95919L4.55528 45.8938L7.01828 40.7985H8.80256V40.9708C8.54495 40.9708 8.35102 40.9978 8.22174 41.0517C8.09246 41.1056 7.99835 41.2154 7.93846 41.381C7.87857 41.5466 7.84911 41.8085 7.84911 42.1647V46.1701C7.84911 46.5206 7.87762 46.7758 7.93371 46.9346C7.99075 47.0945 8.08105 47.1975 8.20748 47.2456C8.33296 47.2938 8.53164 47.3179 8.80256 47.3179V47.4902H6.02776V47.3179C6.29868 47.3179 6.4964 47.2938 6.62283 47.2456C6.74831 47.1975 6.84147 47.0925 6.90136 46.9298C6.96125 46.7671 6.99071 46.5081 6.99071 46.1509V41.4378L4.25394 47.1262H4.15032L1.45062 41.6573L1.44111 46.1605C1.44111 46.5938 1.51526 46.8952 1.6626 47.0637C1.80994 47.2322 2.04189 47.3169 2.35654 47.3169V47.4892H0.289933V47.3169C0.604582 47.3169 0.835578 47.2322 0.983872 47.0637L0.982921 47.0656ZM13.9748 46.822C13.9748 47.0001 13.9092 47.1272 13.777 47.2042L13.778 47.2052C13.6459 47.2813 13.4386 47.3198 13.1554 47.3198V47.4921H15.8265V47.3198C15.6497 47.3198 15.5071 47.2851 15.3969 47.2148C15.2866 47.1455 15.1858 47.0309 15.0946 46.8711C15.0033 46.7113 14.8978 46.4725 14.778 46.1538L12.6069 40.4278H12.5403C12.3825 40.6184 12.1534 40.7879 11.8511 40.9342L11.8416 41.0006L12.0489 41.5456L10.3596 45.9814C10.1705 46.4657 9.99271 46.8095 9.82636 47.0136C9.65905 47.2177 9.43756 47.3198 9.16094 47.3198V47.4921H11.3977V47.3198C10.7427 47.3198 10.4157 47.1002 10.4157 46.6602C10.4157 46.5071 10.4595 46.3126 10.5479 46.0767L10.8692 45.2352H13.4557L13.8141 46.1817C13.9215 46.4551 13.9748 46.6689 13.9748 46.822ZM12.1629 41.8316L13.3806 45.0244H10.9452L12.1629 41.8316ZM16.8541 47.2418C16.9863 47.1908 17.0823 47.0829 17.1422 46.9163C17.2021 46.7507 17.2315 46.4927 17.2315 46.1422V42.1175C17.2315 41.7728 17.2021 41.5215 17.1422 41.3617C17.0823 41.2028 16.9863 41.0969 16.8541 41.0469C16.722 40.9958 16.5205 40.9698 16.2505 40.9698V40.7975H19.0919C19.897 40.7975 20.5928 40.9265 21.1775 41.1846C21.763 41.4426 22.2089 41.8152 22.5178 42.3034C22.8258 42.7906 22.9798 43.3692 22.9798 44.0384C22.9798 44.7711 22.8287 45.396 22.5264 45.9121C22.2241 46.4282 21.7916 46.8201 21.2288 47.0877C20.666 47.3554 19.9997 47.4892 19.2325 47.4892H16.2505V47.3169C16.5214 47.3169 16.722 47.2909 16.8541 47.2399V47.2418ZM18.1897 46.95C18.2563 47.081 18.3599 47.1686 18.5015 47.2129C18.6432 47.2582 18.8399 47.2803 19.0919 47.2803H19.4322C19.954 47.2803 20.4122 47.1503 20.8058 46.8884C21.1993 46.6275 21.5007 46.2539 21.7117 45.7696C21.9227 45.2853 22.0283 44.7211 22.0283 44.0769C22.0283 43.4328 21.9132 42.9109 21.6832 42.4516C21.4531 41.9924 21.1166 41.6371 20.6737 41.3858C20.2307 41.1345 19.6964 41.0084 19.0738 41.0084C18.7154 41.0084 18.4616 41.0584 18.3143 41.1566C18.166 41.2558 18.0928 41.4541 18.0928 41.7546V46.382C18.0928 46.6304 18.126 46.8201 18.1916 46.951L18.1897 46.95ZM24.0416 46.9163C23.9817 47.0829 23.8829 47.1908 23.7441 47.2418L23.746 47.2399C23.6082 47.2909 23.4 47.3169 23.1233 47.3169V47.4892H25.9923V47.3169C25.7156 47.3169 25.5094 47.2899 25.3744 47.236C25.2384 47.1821 25.1415 47.0704 25.0816 46.9019C25.0217 46.7334 24.9922 46.4667 24.9922 46.1037V44.1626H25.7194L28.1549 47.4902H29.788V47.3178C29.5798 47.3178 29.3878 47.2687 29.2119 47.1696C29.0351 47.0714 28.8431 46.9058 28.6359 46.6727C28.4277 46.4407 28.1511 46.0912 27.8051 45.6261L26.6719 44.0962C27.2062 43.9999 27.633 43.8073 27.9505 43.5175C28.268 43.2277 28.4267 42.8724 28.4267 42.4516C28.4267 41.9423 28.2233 41.5389 27.8174 41.2423C27.4115 40.9458 26.825 40.7975 26.0569 40.7975H23.1214V40.9698C23.3981 40.9698 23.6053 40.9968 23.7441 41.0469C23.8829 41.0969 23.9817 41.2028 24.0416 41.3617C24.1015 41.5215 24.131 41.77 24.131 42.1079V46.1518C24.131 46.4956 24.1015 46.7507 24.0416 46.9163ZM27.0427 43.5801C26.7309 43.8353 26.3335 43.9623 25.8487 43.9623L25.8478 43.9633L24.9884 43.9537V41.7353C24.9884 41.5254 25.0122 41.3713 25.0597 41.2722C25.1073 41.173 25.1938 41.1046 25.3192 41.0661C25.4457 41.0276 25.6377 41.0084 25.8953 41.0084H26.0179C26.5027 41.0084 26.8725 41.1403 27.1273 41.405C27.382 41.6689 27.5094 42.0251 27.5094 42.4709C27.5094 42.9552 27.3545 43.3249 27.0427 43.5801ZM30.7196 47.2418C30.8584 47.1908 30.9572 47.0839 31.0171 46.9212C31.077 46.7584 31.1065 46.5052 31.1065 46.1615V42.1272C31.1065 41.7825 31.077 41.5292 31.0171 41.3665C30.9572 41.2038 30.8584 41.0969 30.7196 41.0469C30.5808 40.9968 30.3736 40.9698 30.097 40.9698V40.7975H32.9659V40.9698C32.7016 40.9698 32.5001 40.9958 32.3622 41.0469C32.2234 41.0979 32.1227 41.2048 32.0599 41.3665C31.9972 41.5292 31.9658 41.7825 31.9658 42.1272V46.1518C31.9658 46.4956 31.9953 46.7507 32.0552 46.9163C32.1151 47.082 32.212 47.1908 32.348 47.2418C32.483 47.2928 32.6892 47.3188 32.9659 47.3188V47.4912H30.097V47.3188C30.3736 47.3188 30.5818 47.2928 30.7196 47.2418ZM34.6228 46.9163C34.5629 47.0829 34.4669 47.1908 34.3347 47.2418V47.2399C34.2026 47.2909 34.002 47.3169 33.7311 47.3169V47.4892H36.7131C37.4803 47.4892 38.1466 47.3554 38.7094 47.0877C39.2721 46.8201 39.7047 46.4282 40.007 45.9121C40.3093 45.396 40.4604 44.7711 40.4604 44.0384C40.4604 43.3692 40.3064 42.7906 39.9984 42.3034C39.6895 41.8152 39.2436 41.4426 38.6581 41.1846C38.0734 40.9265 37.3776 40.7975 36.5724 40.7975H33.7311V40.9698C34.0011 40.9698 34.2026 40.9958 34.3347 41.0469C34.4669 41.0969 34.5629 41.2028 34.6228 41.3617C34.6827 41.5215 34.7121 41.7728 34.7121 42.1175V46.1422C34.7121 46.4927 34.6827 46.7507 34.6228 46.9163ZM35.9821 47.2129C35.8405 47.1686 35.7369 47.081 35.6703 46.95L35.6722 46.951C35.6066 46.8201 35.5734 46.6304 35.5734 46.382V41.7546C35.5734 41.4541 35.6466 41.2558 35.7948 41.1566C35.9422 41.0584 36.196 41.0084 36.5544 41.0084C37.177 41.0084 37.7103 41.1335 38.1542 41.3858C38.5972 41.6371 38.9337 41.9924 39.1638 42.4516C39.3938 42.9109 39.5088 43.4328 39.5088 44.0769C39.5088 44.7211 39.4033 45.2853 39.1923 45.7696C38.9813 46.2539 38.6799 46.6275 38.2864 46.8884C37.8928 47.1503 37.4346 47.2803 36.9128 47.2803H36.5724C36.3205 47.2803 36.1238 47.2582 35.9821 47.2129ZM43.8578 47.2418C43.9966 47.1908 44.0955 47.0839 44.1554 46.9212C44.2153 46.7584 44.2447 46.5052 44.2447 46.1615V42.1272C44.2447 41.7825 44.2153 41.5292 44.1554 41.3665C44.0955 41.2038 43.9966 41.0969 43.8578 41.0469C43.7191 40.9968 43.5118 40.9698 43.2352 40.9698V40.7975H46.1041V40.9698C45.8398 40.9698 45.6383 40.9958 45.5005 41.0469C45.3617 41.0979 45.2609 41.2048 45.1982 41.3665C45.1354 41.5292 45.1041 41.7825 45.1041 42.1272V46.1518C45.1041 46.4956 45.1335 46.7507 45.1934 46.9163C45.2533 47.082 45.3503 47.1908 45.4862 47.2418C45.6212 47.2928 45.8275 47.3188 46.1041 47.3188V47.4912H43.2352V47.3188C43.5118 47.3188 43.72 47.2928 43.8578 47.2418ZM47.7182 46.2C47.7182 46.6015 47.6384 46.8884 47.4777 47.0608L47.4768 47.0598C47.3161 47.2322 47.0785 47.3178 46.7638 47.3178V47.4902H49.1232V47.3178C48.7021 47.3178 48.4017 47.235 48.222 47.0694C48.0424 46.9038 47.953 46.614 47.953 46.199V41.6679L52.8895 47.5566H52.9931V42.0877C52.9931 41.6737 53.0644 41.3839 53.206 41.2183C53.3477 41.0526 53.573 40.9698 53.881 40.9698V40.7975H51.5501V40.9698C51.9712 40.9698 52.2802 41.0526 52.475 41.2183C52.6699 41.3839 52.7678 41.6766 52.7678 42.0973V46.0267L48.4169 40.7975H46.7562V40.9698C47.1022 40.9698 47.3494 41.0266 47.4967 41.1422C47.6441 41.2577 47.7182 41.4647 47.7182 41.7642V46.2ZM54.9571 47.2418C55.0958 47.1908 55.1947 47.0839 55.2546 46.9212C55.3145 46.7584 55.3439 46.5052 55.3439 46.1615V42.1368C55.3439 41.7931 55.3135 41.5379 55.2546 41.3723C55.1947 41.2067 55.0958 41.0979 54.9571 41.0478C54.8192 40.9968 54.611 40.9708 54.3344 40.9708V40.7985H58.3745C58.5066 40.7985 58.6055 40.7821 58.672 40.7503C58.7376 40.7185 58.7709 40.6608 58.7709 40.578C58.7709 40.5202 58.7642 40.473 58.7518 40.4345L58.922 40.3864L59.4981 42.5373L59.3374 42.6047C59.1673 42.1647 59.0123 41.8364 58.8707 41.6198C58.729 41.4031 58.5484 41.2471 58.3279 41.1518C58.1073 41.0565 57.8022 41.0084 57.4125 41.0084H57.0636C56.806 41.0084 56.6187 41.0257 56.5018 41.0613C56.3858 41.0969 56.3069 41.1663 56.266 41.2722C56.2252 41.3781 56.2042 41.5447 56.2042 41.7738V43.9729H56.997C57.2993 43.9729 57.5237 43.9364 57.672 43.8632C57.8203 43.79 57.9172 43.6802 57.9648 43.5339C58.0123 43.3875 58.0351 43.1805 58.0351 42.9119H58.2148V45.3787H58.0351C58.0351 45.0475 58.0113 44.8 57.9648 44.6383C57.9172 44.4755 57.8212 44.359 57.6767 44.2888C57.5322 44.2185 57.3088 44.1838 57.0065 44.1838H56.2042V46.1528C56.2042 46.5033 56.2337 46.7604 56.2936 46.9221C56.3535 47.0848 56.459 47.1917 56.6092 47.2428C56.7603 47.2938 56.9999 47.3198 57.3269 47.3198V47.4921H54.3354V47.3198C54.612 47.3198 54.8202 47.2938 54.958 47.2428L54.9571 47.2418ZM63.5086 46.822C63.5086 47.0001 63.4431 47.1272 63.3109 47.2042L63.3119 47.2052C63.1797 47.2813 62.9725 47.3198 62.6892 47.3198V47.4921H65.3604V47.3198C65.1846 47.3198 65.041 47.2851 64.9307 47.2148C64.8214 47.1455 64.7207 47.0309 64.6294 46.8711C64.5381 46.7113 64.4317 46.4725 64.3129 46.1538L62.1417 40.4278H62.0751C61.9173 40.6184 61.6882 40.7879 61.386 40.9342L61.3764 41.0006L61.5837 41.5456L59.8945 45.9814C59.7053 46.4657 59.5275 46.8095 59.3612 47.0136C59.1939 47.2177 58.9724 47.3198 58.6958 47.3198V47.4921H60.9325V47.3198C60.2776 47.3198 59.9505 47.1002 59.9505 46.6602C59.9505 46.5071 59.9943 46.3126 60.0827 46.0767L60.403 45.2352H62.9896L63.348 46.1817C63.4554 46.4551 63.5086 46.6689 63.5086 46.822ZM61.6968 41.8316L62.9145 45.0244H60.4791L61.6968 41.8316ZM66.4489 47.0608C66.6095 46.8884 66.6893 46.6015 66.6893 46.2V41.7642C66.6893 41.4647 66.6152 41.2577 66.4679 41.1422C66.3196 41.0276 66.0724 40.9698 65.7273 40.9698V40.7975H67.388L71.7399 46.0267V42.0973C71.7399 41.6766 71.642 41.3839 71.4471 41.2183C71.2522 41.0526 70.9433 40.9698 70.5222 40.9698V40.7975H72.854V40.9698C72.546 40.9698 72.3207 41.0526 72.1791 41.2183C72.0374 41.3839 71.9671 41.6737 71.9671 42.0877V47.5566H71.8635L66.927 41.6679V46.199C66.927 46.614 67.0164 46.9038 67.196 47.0694C67.3757 47.235 67.6751 47.3178 68.0972 47.3178V47.4902H65.7378V47.3178C66.0524 47.3178 66.2901 47.2322 66.4507 47.0598L66.4489 47.0608ZM75.8446 46.9356C75.7885 47.0887 75.6915 47.1908 75.5566 47.2418C75.4216 47.2928 75.2124 47.3188 74.9292 47.3188V47.4912H77.7981V47.3188C77.5148 47.3188 77.3066 47.2928 77.1707 47.2418C77.0347 47.1908 76.9387 47.0887 76.8826 46.9356C76.8266 46.7825 76.798 46.5399 76.798 46.2087V41.6968C76.798 41.4349 76.8465 41.252 76.9444 41.147C77.0414 41.0421 77.2096 40.9891 77.4492 40.9891H77.7515C78.0158 40.9891 78.2391 41.0555 78.4217 41.1894C78.6042 41.3232 78.7629 41.511 78.8979 41.7536C79.0329 41.9953 79.1945 42.34 79.3837 42.7858L79.5443 42.728L79.0063 40.4239L78.8551 40.4624C78.8675 40.5009 78.8741 40.5481 78.8741 40.6059C78.8741 40.6887 78.8428 40.7416 78.78 40.7638C78.7173 40.7859 78.6127 40.7975 78.4682 40.7975H74.2675C74.1173 40.7975 74.0099 40.785 73.9472 40.759C73.8845 40.733 73.8531 40.6791 73.8531 40.5963C73.8531 40.5712 73.8597 40.526 73.8721 40.4624L73.7209 40.4239L73.1924 42.728L73.3531 42.7858C73.5356 42.3467 73.6953 42.0039 73.8341 41.7584C73.9719 41.5129 74.1345 41.3232 74.3198 41.1894C74.5052 41.0555 74.7305 40.9891 74.9948 40.9891H75.297C75.5299 40.9891 75.6934 41.0421 75.7876 41.147C75.8817 41.252 75.9292 41.4359 75.9292 41.6968V46.2087C75.9292 46.5408 75.9007 46.7825 75.8446 46.9356ZM83.5568 47.2042C83.6889 47.1272 83.7545 47.0001 83.7545 46.822C83.7545 46.6689 83.7003 46.4551 83.5939 46.1817L83.2355 45.2352H80.6489L80.3286 46.0767C80.2402 46.3126 80.1964 46.5071 80.1964 46.6602C80.1964 47.1002 80.5234 47.3198 81.1784 47.3198V47.4921H78.9416V47.3198C79.2183 47.3198 79.4398 47.2177 79.6071 47.0136C79.7734 46.8095 79.9512 46.4657 80.1404 45.9814L81.8296 41.5456L81.6223 41.0006L81.6318 40.9342C81.9332 40.7879 82.1632 40.6184 82.321 40.4278H82.3866L84.5578 46.1538C84.6776 46.4725 84.7831 46.7113 84.8734 46.8711C84.9646 47.0309 85.0654 47.1455 85.1757 47.2148C85.2859 47.2851 85.4295 47.3198 85.6053 47.3198V47.4921H82.9342V47.3198C83.2174 47.3198 83.4247 47.2813 83.5568 47.2052V47.2042ZM83.1604 45.0244L81.9427 41.8316L80.725 45.0244H83.1604ZM86.3877 45.2718L86.1805 45.32L86.1786 45.3209L86.3392 47.6443L86.5189 47.625C86.5312 47.3833 86.6263 47.262 86.8021 47.262C86.8839 47.262 87.016 47.2996 87.1985 47.3766C87.4067 47.4661 87.6063 47.5355 87.7984 47.5865C87.9904 47.6375 88.2252 47.6635 88.5018 47.6635C88.9553 47.6635 89.3659 47.5788 89.7338 47.4103C90.1026 47.2408 90.3935 47.0049 90.6074 46.7026C90.8213 46.4003 90.9277 46.0575 90.9277 45.6752C90.9277 45.1909 90.7528 44.7798 90.404 44.4418C90.0541 44.1049 89.5057 43.8112 88.7566 43.5628C88.1206 43.3529 87.6691 43.1295 87.402 42.8936C87.1339 42.6577 87.0008 42.3621 87.0008 42.0049C87.0008 41.6737 87.1187 41.3983 87.3544 41.1778C87.5902 40.9583 87.9315 40.8485 88.3782 40.8485C88.8878 40.8485 89.3269 41.0093 89.6948 41.3309C90.0627 41.6525 90.3317 42.1002 90.5019 42.6741L90.7006 42.6356L90.21 40.4557L90.0304 40.4846C90.0361 40.5991 90.0171 40.6935 89.9733 40.7667C89.9287 40.8399 89.8697 40.8764 89.7937 40.8764C89.7376 40.8764 89.6701 40.8649 89.5912 40.8427L89.5753 40.8383C89.5053 40.8186 89.4592 40.8057 89.4353 40.7994C89.0703 40.6848 88.7176 40.6271 88.3402 40.6271C87.9628 40.6271 87.6102 40.7051 87.2831 40.861C86.9561 41.017 86.6947 41.2317 86.4999 41.5061C86.305 41.7806 86.2071 42.0733 86.2071 42.4237C86.2071 42.7742 86.2945 43.0717 86.4713 43.3172C86.6472 43.5628 86.882 43.7659 87.1748 43.9286C87.4676 44.0914 87.8373 44.2551 88.2841 44.4207C88.7309 44.5872 89.0817 44.7365 89.3364 44.8703C89.5922 45.0041 89.7918 45.1669 89.9363 45.3575C90.0808 45.5491 90.153 45.785 90.153 46.0652C90.153 46.3078 90.0884 46.5322 89.96 46.7392C89.8307 46.9462 89.6406 47.1118 89.3887 47.236C89.1368 47.3602 88.8421 47.4228 88.5018 47.4228C87.4257 47.4228 86.7213 46.7055 86.3877 45.2718ZM17.2743 58.3597C17.4083 58.3096 17.5053 58.2047 17.5633 58.0439C17.6213 57.8831 17.6507 57.6357 17.6507 57.3006V53.3722C17.6507 53.0439 17.6213 52.8032 17.5633 52.6481C17.5053 52.4931 17.4093 52.3911 17.2743 52.342C17.1393 52.2928 16.9378 52.2678 16.6688 52.2678V52.1012H19.5206C20.2658 52.1012 20.8362 52.2447 21.2307 52.5326C21.6252 52.8205 21.822 53.2124 21.822 53.7073C21.822 54.1155 21.668 54.4612 21.359 54.7423C21.0501 55.0244 20.6366 55.2112 20.1166 55.3037L21.2164 56.7893C21.553 57.2409 21.822 57.5798 22.0235 57.8061C22.225 58.0323 22.4113 58.1931 22.5825 58.2885C22.7536 58.3847 22.9399 58.4329 23.1414 58.4329V58.6004H21.5549L19.1888 55.3682H18.4825V57.2534C18.4825 57.6068 18.511 57.8648 18.57 58.0295C18.628 58.1931 18.723 58.3019 18.8542 58.3539C18.9854 58.4069 19.186 58.4329 19.455 58.4329V58.6004H16.6678V58.4329C16.9368 58.4329 17.1384 58.4088 17.2734 58.3587L17.2743 58.3597ZM19.319 55.1746C19.7896 55.1746 20.1765 55.0504 20.4788 54.803C20.7811 54.5555 20.9322 54.1964 20.9322 53.7256C20.9322 53.2923 20.8086 52.9476 20.5605 52.6905C20.3134 52.4334 19.954 52.3054 19.4835 52.3054H19.3647C19.1137 52.3054 18.9274 52.3237 18.8057 52.3612C18.6831 52.3988 18.5994 52.4652 18.5538 52.5615C18.5082 52.6578 18.4854 52.808 18.4854 53.0121V55.1669L19.32 55.1766L19.319 55.1746ZM27.9562 58.6428C28.017 58.6707 28.0475 58.7285 28.0475 58.8151L28.0484 58.8161C28.0484 58.8719 28.0427 58.9182 28.0303 58.9557L28.1958 59.0019L28.7737 56.8654L28.5998 56.8095C28.4657 57.237 28.3298 57.5606 28.192 57.7801C28.0551 58.0006 27.8754 58.1585 27.6558 58.2538C27.4362 58.3501 27.1368 58.3982 26.7575 58.3982H26.2527C25.9894 58.3982 25.7983 58.3809 25.6795 58.3472C25.5597 58.3135 25.4789 58.2451 25.4362 58.1431C25.3934 58.041 25.3725 57.8783 25.3725 57.6559V55.3152H25.9961C26.2831 55.3152 26.497 55.3479 26.6377 55.4125C26.7784 55.477 26.8725 55.579 26.9219 55.7186C26.9704 55.8582 26.9951 56.0643 26.9951 56.3368H27.1691V54.0799H26.9951C26.9951 54.3466 26.9723 54.5488 26.9267 54.6884C26.8811 54.828 26.786 54.933 26.6425 55.0042C26.498 55.0755 26.2803 55.1111 25.9866 55.1111H25.3725V53.0496C25.3725 52.8205 25.3934 52.6568 25.4362 52.5576C25.478 52.4585 25.5607 52.3911 25.6833 52.3574C25.8059 52.3237 26.0046 52.3063 26.2793 52.3063H26.5265C26.8991 52.3063 27.1929 52.3516 27.4068 52.4411C27.6206 52.5316 27.7936 52.6722 27.9248 52.8638C28.056 53.0554 28.1958 53.3433 28.3421 53.7275L28.5161 53.6716L27.9933 51.7026L27.8279 51.7488C27.8393 51.7864 27.8459 51.8326 27.8459 51.8885C27.8459 51.9684 27.8155 52.0242 27.7547 52.055C27.6929 52.0858 27.595 52.1012 27.4609 52.1012H23.5549V52.2678C23.8239 52.2678 24.0255 52.2919 24.1605 52.342C24.2954 52.392 24.3915 52.495 24.4494 52.653C24.5074 52.8109 24.5369 53.0573 24.5369 53.3915V57.3102C24.5369 57.6453 24.5074 57.8908 24.4494 58.0487C24.3915 58.2066 24.2954 58.3096 24.1605 58.3597C24.0255 58.4098 23.8239 58.4338 23.5549 58.4338V58.6014H27.6539C27.7936 58.6014 27.8954 58.6149 27.9562 58.6428ZM29.5057 56.4928L29.7072 56.4465C30.0314 57.8398 30.7158 58.5359 31.7605 58.5359C32.0904 58.5359 32.3784 58.4753 32.6227 58.3549C32.867 58.2345 33.0524 58.0728 33.1769 57.8725C33.3024 57.6713 33.3651 57.4527 33.3651 57.2178C33.3651 56.9453 33.2948 56.7161 33.1541 56.5303C33.0134 56.3445 32.8195 56.1866 32.5723 56.0566C32.3252 55.9266 31.9839 55.7812 31.5504 55.6204C31.116 55.4596 30.7576 55.2998 30.4734 55.1419C30.1892 54.984 29.961 54.7856 29.7899 54.5478C29.6188 54.309 29.5332 54.0202 29.5332 53.6793C29.5332 53.3385 29.6283 53.0545 29.8175 52.7877C30.0066 52.522 30.2605 52.3131 30.5789 52.1609C30.8964 52.0088 31.2386 51.9337 31.6056 51.9337C31.9725 51.9337 32.3147 51.9896 32.6693 52.1012C32.6883 52.1057 32.7224 52.1152 32.7718 52.129L32.772 52.1291L32.8204 52.1426C32.8965 52.1648 32.9621 52.1754 33.0172 52.1754C33.0904 52.1754 33.1484 52.1398 33.1912 52.0685C33.2339 51.9973 33.252 51.9058 33.2463 51.7941L33.4202 51.7662L33.8974 53.8835L33.7045 53.921C33.5391 53.3645 33.2777 52.9293 32.9202 52.6164C32.5628 52.3034 32.136 52.1475 31.6407 52.1475C31.2063 52.1475 30.8755 52.2543 30.6454 52.4681C30.4154 52.6818 30.3013 52.9495 30.3013 53.2711C30.3013 53.6177 30.4316 53.9056 30.6911 54.1348C30.9506 54.3639 31.3898 54.5806 32.0067 54.7847C32.7339 55.0264 33.2672 55.3114 33.6066 55.6387C33.9459 55.967 34.1151 56.3666 34.1151 56.8365C34.1151 57.2081 34.0115 57.5403 33.8033 57.835C33.5952 58.1296 33.3128 58.3587 32.9554 58.5224C32.598 58.6861 32.1987 58.768 31.7586 58.768C31.4896 58.768 31.2624 58.7429 31.0751 58.6938C30.8888 58.6437 30.6949 58.5763 30.4924 58.4897C30.3146 58.4156 30.1863 58.378 30.1074 58.378C29.9363 58.378 29.8441 58.4955 29.8327 58.7314L29.6587 58.7497L29.5028 56.4928H29.5057ZM35.4241 58.0487C35.3661 58.2066 35.2692 58.3096 35.1351 58.3597L35.1361 58.3607C35.0011 58.4107 34.7996 58.4348 34.5305 58.4348V58.6023H37.3177V58.4348C37.0487 58.4348 36.8481 58.4107 36.7169 58.3607C36.5857 58.3106 36.4907 58.2057 36.4327 58.0449C36.3738 57.8831 36.3452 57.6357 36.3452 57.3015V53.3915C36.3452 53.0573 36.3757 52.8109 36.4365 52.6529C36.4983 52.495 36.5953 52.392 36.7302 52.342C36.8643 52.2928 37.0601 52.2678 37.3168 52.2678V52.1012H34.5296V52.2678C34.7986 52.2678 35.0001 52.2919 35.1351 52.342C35.2701 52.392 35.3661 52.495 35.4241 52.6529C35.4821 52.8109 35.5116 53.0573 35.5116 53.3915V57.3102C35.5116 57.6453 35.4821 57.8908 35.4241 58.0487ZM38.6191 58.3597C38.7474 58.3096 38.8406 58.2047 38.8986 58.0439C38.9566 57.8831 38.986 57.6318 38.986 57.2919V53.3818C38.986 53.0477 38.9566 52.8032 38.8986 52.6481C38.8406 52.4931 38.7474 52.3911 38.6191 52.342C38.4908 52.2928 38.2949 52.2678 38.0326 52.2678V52.1012H40.7922C41.5745 52.1012 42.2504 52.2264 42.8188 52.4777C43.3873 52.7281 43.8217 53.0901 44.1212 53.5638C44.4206 54.0375 44.5708 54.5989 44.5708 55.2497C44.5708 55.9622 44.4244 56.5688 44.1307 57.0705C43.8369 57.5721 43.4168 57.9524 42.8702 58.2124C42.3226 58.4724 41.6762 58.6023 40.9309 58.6023H38.0335V58.4348C38.2959 58.4348 38.4917 58.4107 38.62 58.3607L38.6191 58.3597ZM39.9167 58.0766C39.9803 58.2037 40.0821 58.2885 40.2189 58.3318C40.3568 58.3751 40.5469 58.3973 40.7922 58.3973H41.122C41.6296 58.3973 42.0736 58.2702 42.4557 58.016C42.8378 57.7627 43.1306 57.3998 43.336 56.9299C43.5403 56.4591 43.643 55.9112 43.643 55.2863C43.643 54.6614 43.5318 54.1531 43.3084 53.7073C43.085 53.2615 42.758 52.9168 42.3274 52.6722C41.8968 52.4276 41.3787 52.3054 40.7731 52.3054C40.4243 52.3054 40.179 52.3535 40.0355 52.4488C39.8919 52.5451 39.8197 52.7386 39.8197 53.0294V57.524C39.8197 57.7656 39.852 57.9495 39.9157 58.0766H39.9167ZM49.0814 58.6428C49.1422 58.6707 49.1726 58.7285 49.1726 58.8151L49.1745 58.8161C49.1745 58.8719 49.1688 58.9182 49.1565 58.9557L49.3209 59.0019L49.8989 56.8654L49.7249 56.8095C49.5909 57.237 49.454 57.5596 49.3171 57.7801C49.1802 58.0006 49.0015 58.1585 48.781 58.2538C48.5614 58.3501 48.262 58.3982 47.8827 58.3982H47.3779C47.1146 58.3982 46.9235 58.3809 46.8047 58.3472C46.6849 58.3135 46.6041 58.2451 46.5613 58.1431C46.5186 58.041 46.4977 57.8783 46.4977 57.6559V55.3152H47.1213C47.4083 55.3152 47.6222 55.3479 47.7629 55.4125C47.9036 55.477 47.9977 55.579 48.0471 55.7186C48.0956 55.8582 48.1203 56.0643 48.1203 56.3368H48.2943V54.0799H48.1203C48.1203 54.3466 48.0975 54.5488 48.0519 54.6884C48.0063 54.828 47.9112 54.933 47.7677 55.0042C47.6232 55.0755 47.4055 55.1111 47.1117 55.1111H46.4977V53.0496C46.4977 52.8205 46.5186 52.6568 46.5613 52.5576C46.6032 52.4585 46.6859 52.3911 46.8085 52.3574C46.9311 52.3237 47.1298 52.3063 47.4045 52.3063H47.6517C48.0243 52.3063 48.3181 52.3516 48.5319 52.4411C48.7458 52.5316 48.9188 52.6722 49.05 52.8638C49.1812 53.0554 49.3209 53.3433 49.4673 53.7275L49.6413 53.6716L49.1185 51.7026L48.954 51.7488C48.9664 51.7864 48.9721 51.8326 48.9721 51.8885C48.9721 51.9684 48.9417 52.0242 48.8808 52.055C48.819 52.0858 48.7211 52.1012 48.5871 52.1012H44.6811V52.2678C44.9501 52.2678 45.1516 52.2919 45.2866 52.342C45.4216 52.392 45.5176 52.495 45.5756 52.653C45.6336 52.8109 45.663 53.0573 45.663 53.3915V57.3102C45.663 57.6453 45.6336 57.8908 45.5756 58.0487C45.5176 58.2066 45.4216 58.3096 45.2866 58.3597C45.1516 58.4098 44.9501 58.4338 44.6811 58.4338V58.6014H48.7791C48.9198 58.6014 49.0205 58.6149 49.0814 58.6428ZM51.0016 58.1835C51.1575 58.016 51.2354 57.7377 51.2354 57.3478V53.0381C51.2354 52.7473 51.1632 52.5461 51.0197 52.4344C50.8761 52.3227 50.6356 52.2669 50.3001 52.2669V52.1003H51.9142L56.1405 57.1802V53.3635C56.1405 52.9553 56.0455 52.6703 55.8563 52.5085C55.6672 52.3477 55.3677 52.2669 54.958 52.2669V52.1003H57.2233V52.2669C56.9238 52.2669 56.7052 52.3477 56.5674 52.5085C56.4295 52.6693 56.3611 52.9514 56.3611 53.3539V58.6659H56.2603L51.4645 52.9457V57.3478C51.4645 57.7502 51.552 58.0323 51.726 58.1931C51.8999 58.3539 52.1917 58.4348 52.6015 58.4348V58.6023H50.3096V58.4348C50.6157 58.4348 50.8457 58.351 51.0016 58.1845V58.1835ZM57.9514 57.161C58.248 57.6751 58.6416 58.0709 59.134 58.3501H59.1359C59.6283 58.6283 60.1644 58.768 60.7453 58.768C61.3261 58.768 61.8575 58.6322 62.3404 58.3597C62.8233 58.0863 63.2111 57.6809 63.5048 57.1427L63.3585 57.0406C63.1199 57.4922 62.7966 57.8292 62.3907 58.0526C61.9848 58.275 61.5675 58.3867 61.1027 58.3867C60.6378 58.3867 60.2034 58.2625 59.8004 58.015C59.3973 57.7676 59.0731 57.4104 58.8288 56.9424C58.5845 56.4745 58.4619 55.9199 58.4619 55.3123C58.4619 54.7048 58.5627 54.1608 58.7642 53.6774C58.9657 53.1941 59.2481 52.8166 59.6121 52.5442C59.9753 52.2726 60.3926 52.1359 60.8631 52.1359C61.3888 52.1359 61.8498 52.2784 62.2472 52.5634C62.6446 52.8484 62.944 53.2846 63.1455 53.8729L63.3195 53.817L62.7786 51.7084L62.6132 51.746C62.6246 51.7835 62.6312 51.8297 62.6312 51.8856C62.6312 52.0338 62.5219 52.108 62.3014 52.108C62.2405 52.108 62.1065 52.0897 61.8983 52.0521C61.5257 51.9722 61.1835 51.9318 60.8717 51.9318C60.2785 51.9318 59.7253 52.0762 59.2119 52.3641C58.6986 52.652 58.286 53.0593 57.9743 53.585C57.6625 54.1117 57.5066 54.7028 57.5066 55.3778C57.5066 56.0527 57.6549 56.6468 57.9514 57.161ZM68.408 58.8151C68.408 58.7285 68.3776 58.6707 68.3168 58.6428C68.2559 58.6149 68.1552 58.6014 68.0145 58.6014H63.9155V58.4338C64.1845 58.4338 64.386 58.4098 64.521 58.3597C64.656 58.3096 64.752 58.2066 64.81 58.0487C64.868 57.8908 64.8975 57.6453 64.8975 57.3102V53.3915C64.8975 53.0573 64.868 52.8109 64.81 52.653C64.752 52.495 64.656 52.392 64.521 52.342C64.387 52.2919 64.1845 52.2678 63.9155 52.2678V52.1012H67.8215C67.9556 52.1012 68.0535 52.0858 68.1152 52.055C68.1761 52.0242 68.2065 51.9684 68.2065 51.8885C68.2065 51.8326 68.2008 51.7864 68.1884 51.7488L68.3529 51.7026L68.8757 53.6716L68.7018 53.7275C68.5554 53.3433 68.4156 53.0554 68.2845 52.8638C68.1533 52.6722 67.9803 52.5316 67.7664 52.4411C67.5525 52.3516 67.2588 52.3063 66.8861 52.3063H66.639C66.3633 52.3063 66.1656 52.3237 66.0429 52.3574C65.9203 52.3911 65.8376 52.4585 65.7958 52.5576C65.753 52.6568 65.7311 52.8205 65.7311 53.0496V55.1111H66.3452C66.639 55.1111 66.8567 55.0755 67.0012 55.0042C67.1447 54.933 67.2397 54.828 67.2854 54.6884C67.331 54.5488 67.3538 54.3466 67.3538 54.0799H67.5278V56.3368H67.3538C67.3538 56.0643 67.3291 55.8582 67.2806 55.7186C67.2312 55.579 67.1371 55.477 66.9964 55.4125C66.8557 55.3479 66.6418 55.3152 66.3547 55.3152H65.7311V57.6559C65.7311 57.8783 65.7521 58.041 65.7958 58.1431C65.8386 58.2451 65.9194 58.3135 66.0382 58.3472C66.157 58.3809 66.3481 58.3982 66.6114 58.3982H67.1162C67.4955 58.3982 67.7949 58.3501 68.0145 58.2538C68.235 58.1585 68.4137 58.0006 68.5506 57.7801C68.6875 57.5596 68.8244 57.237 68.9584 56.8095L69.1324 56.8654L68.5544 59.0019L68.39 58.9557C68.4023 58.9182 68.408 58.8719 68.408 58.8161V58.8151ZM70.1229 56.4465L69.9214 56.4928H69.9204L70.0763 58.7497L70.2503 58.7314C70.2627 58.4955 70.3539 58.378 70.525 58.378C70.6039 58.378 70.7332 58.4156 70.91 58.4897C71.1125 58.5763 71.3064 58.6437 71.4927 58.6938C71.68 58.7429 71.9072 58.768 72.1762 58.768C72.6164 58.768 73.0156 58.6861 73.373 58.5224C73.7305 58.3587 74.0128 58.1296 74.221 57.835C74.4291 57.5403 74.5328 57.2081 74.5328 56.8365C74.5328 56.3666 74.3626 55.967 74.0232 55.6387C73.6839 55.3114 73.1506 55.0264 72.4234 54.7847C71.8055 54.5806 71.3673 54.3639 71.1077 54.1348C70.8482 53.9056 70.718 53.6177 70.718 53.2711C70.718 52.9495 70.833 52.6818 71.0621 52.4681C71.2912 52.2543 71.622 52.1475 72.0564 52.1475C72.5517 52.1475 72.9785 52.3034 73.336 52.6164C73.6934 52.9293 73.9548 53.3645 74.1202 53.921L74.3132 53.8835L73.8369 51.7662L73.663 51.7941C73.6687 51.9058 73.6506 51.9973 73.6078 52.0685C73.565 52.1398 73.5071 52.1754 73.4339 52.1754C73.3787 52.1754 73.3122 52.1648 73.2361 52.1426L73.2072 52.1346C73.147 52.1178 73.1056 52.1063 73.085 52.1012C72.7304 51.9896 72.3882 51.9337 72.0213 51.9337C71.6543 51.9337 71.3121 52.0088 70.9946 52.1609C70.6762 52.3131 70.4224 52.522 70.2332 52.7877C70.0431 53.0545 69.949 53.3385 69.949 53.6793C69.949 54.0202 70.0345 54.309 70.2056 54.5478C70.3767 54.7856 70.6049 54.984 70.8891 55.1419C71.1733 55.2998 71.5317 55.4596 71.9661 55.6204C72.3996 55.7812 72.7409 55.9266 72.988 56.0566C73.2361 56.1866 73.4301 56.3445 73.5708 56.5303C73.7114 56.7161 73.7818 56.9453 73.7818 57.2178C73.7818 57.4527 73.719 57.6713 73.5936 57.8725C73.469 58.0728 73.2837 58.2345 73.0394 58.3549C72.7941 58.4753 72.507 58.5359 72.1772 58.5359C71.1315 58.5359 70.4471 57.8398 70.1229 56.4465Z"></path>
</svg>
